<svg width="1011" height="1117" viewBox="0 0 1011 1117" fill="none" xmlns="http://www.w3.org/2000/svg">
<path fill-rule="evenodd" clip-rule="evenodd" d="M61 483.494L550.712 511.218L846.559 458L866.557 676.971L905.33 760.538L891.167 851.462L975 932.453L866.557 954.783L846.559 1006.05L774.523 994.075L605.654 1034.78L576.498 1096.36L465.154 1006.05L337.117 1112C367.181 1034.59 378.892 995.287 372.251 994.075C344.14 988.948 307.74 980.651 263.051 969.186L246.619 889.171L167.909 851.462L235.692 777.048L189.541 741.896L167.909 666.825L189.541 583.815L212.869 553.095L61 483.494Z" fill="#D8D8D8" stroke="#757575" stroke-width="3"/>
<path fill-rule="evenodd" clip-rule="evenodd" d="M910.36 708L955 772.433L894.158 836.156L603.899 828.43L397.469 907L301 882.918L343.048 820.069L564.103 720.346L637.201 708H910.36Z" fill="#757575"/>
<path fill-rule="evenodd" clip-rule="evenodd" d="M588.975 630H605.183L630 691.51L543 702L550.324 691.51L597.618 677.25L588.975 630Z" fill="#757575"/>
<path fill-rule="evenodd" clip-rule="evenodd" d="M520.732 553.5V615L321 565.094L520.732 553.5Z" fill="#757575"/>
<path fill-rule="evenodd" clip-rule="evenodd" d="M606.331 546.824L752 504L639.709 600L606.331 546.824Z" fill="#757575"/>
<path fill-rule="evenodd" clip-rule="evenodd" d="M550.392 49.4517L831.411 287.81L1011 312.342L857.443 458.551L550.392 511L48.1221 487.698L154.054 378.9L308.32 76.7706L517.167 111.991L550.392 49.4517Z" fill="#757575"/>
<path fill-rule="evenodd" clip-rule="evenodd" d="M137.105 34.5638L309 76.949L279.716 136.367L137.105 49.505H105.714L51.5941 94.4878L11.0482 136.367L0 68.1833L23.6835 17.2783L74.4612 0L137.105 34.5638Z" fill="#757575"/>
</svg>
